<?xml version="1.0" encoding="utf-8"?>
<!-- Generator: Adobe Illustrator 18.1.0, SVG Export Plug-In . SVG Version: 6.00 Build 0)  -->
<svg version="1.1" id="Layer_1" xmlns="http://www.w3.org/2000/svg" xmlns:xlink="http://www.w3.org/1999/xlink" x="0px" y="0px"
	 viewBox="0 0 100 100" enable-background="new 0 0 100 100" xml:space="preserve">
<g>
	<polygon fill="#091117" points="8.7,46.3 9.6,49 12.5,49 10.1,50.5 11,53.1 8.7,51.3 6.4,53 7.3,50.5 5,49 7.8,49 	"/>
	<polygon fill="#091117" points="18.7,46.3 19.6,49 22.5,49 20.1,50.5 21,53.1 18.7,51.3 16.4,53 17.3,50.5 15,49 17.8,49 	"/>
	<polygon fill="#091117" points="28.7,46.3 29.6,49 32.5,49 30.1,50.5 31,53.1 28.7,51.3 26.4,53 27.3,50.5 25,49 27.8,49 	"/>
	<polygon fill="#091117" points="39.2,46.3 40.1,49 42.9,49 40.6,50.5 41.5,53.1 39.2,51.3 36.9,53 37.8,50.5 35.5,49 38.3,49 	"/>
	<polygon fill="#091117" points="49.4,46.3 50.2,49 53.1,49 50.8,50.5 51.7,53.1 49.4,51.3 47,53 47.9,50.5 45.6,49 48.5,49 	"/>
	<polygon fill="#091117" points="59.5,46.3 60.4,49 63.3,49 60.9,50.5 61.8,53.1 59.5,51.3 57.2,53 58.1,50.5 55.8,49 58.6,49 	"/>
	<polygon fill="#091117" points="70,46.3 70.9,49 73.7,49 71.4,50.5 72.3,53.1 70,51.3 67.7,53 68.6,50.5 66.3,49 69.1,49 	"/>
	<polygon fill="#091117" points="80,46.3 80.9,49 83.7,49 81.4,50.5 82.3,53.1 80,51.3 77.7,53 78.6,50.5 76.3,49 79.1,49 	"/>
	<polygon fill="#091117" points="90,46.3 90.9,49 93.7,49 91.4,50.5 92.3,53.1 90,51.3 87.7,53 88.6,50.5 86.3,49 89.1,49 	"/>
</g>
</svg>
