<?xml version="1.0" encoding="utf-8"?>
<!-- Generator: Adobe Illustrator 18.1.0, SVG Export Plug-In . SVG Version: 6.00 Build 0)  -->
<svg version="1.1" id="Layer_1" xmlns="http://www.w3.org/2000/svg" xmlns:xlink="http://www.w3.org/1999/xlink" x="0px" y="0px"
	 viewBox="0 0 100 100" enable-background="new 0 0 100 100" xml:space="preserve">
<g>
	<polygon fill="#091117" points="12.2,46.6 13.3,50 16.9,50 14,51.8 15.1,55 12.2,52.8 9.3,54.9 10.4,51.8 7.5,50 11.1,50 	"/>
	<polygon fill="#091117" points="27.4,46.6 28.5,50 32.2,50 29.2,51.8 30.4,55 27.4,52.8 24.5,54.9 25.6,51.8 22.7,50 26.3,50 	"/>
	<polygon fill="#091117" points="42.7,46.6 43.8,50 47.4,50 44.5,51.8 45.6,55 42.7,52.8 39.8,54.9 40.9,51.8 38,50 41.6,50 	"/>
	<polygon fill="#091117" points="58,46.6 59.1,50 62.7,50 59.8,51.8 60.9,55 58,52.8 55,54.9 56.1,51.8 53.2,50 56.8,50 	"/>
	<polygon fill="#091117" points="73.2,46.6 74.3,50 77.9,50 75,51.8 76.1,55 73.2,52.8 70.3,54.9 71.4,51.8 68.5,50 72.1,50 	"/>
	<polygon fill="#091117" points="88.5,46.6 89.6,50 93.2,50 90.3,51.8 91.4,55 88.5,52.8 85.6,54.9 86.7,51.8 83.7,50 87.4,50 	"/>
</g>
</svg>
