<?xml version="1.0" encoding="utf-8"?>
<!-- Generator: Adobe Illustrator 18.1.0, SVG Export Plug-In . SVG Version: 6.00 Build 0)  -->
<svg version="1.1" id="Layer_1" xmlns="http://www.w3.org/2000/svg" xmlns:xlink="http://www.w3.org/1999/xlink" x="0px" y="0px"
	 viewBox="0 0 100 100" enable-background="new 0 0 100 100" xml:space="preserve">
<g>
	<path fill="#091117" d="M96,50.9c0-0.1,0-0.2-0.1-0.1L95.8,51L96,50.9z"/>
	<path fill="#091117" d="M95.2,50.5c-0.2,0.1-0.3,0.3-0.2,0.5c0.2-0.2,0.2-0.1,0.4-0.3c0.1,0,0.2,0.1,0.2,0.1c0-0.1,0.2,0,0.3-0.1
		c-0.2-0.2-0.4-0.2-0.6,0C95.1,50.6,95.2,50.6,95.2,50.5z"/>
	<path fill="#091117" d="M82.4,50.2L82.4,50.2C82.4,50.2,82.4,50.2,82.4,50.2z"/>
	<path fill="#091117" d="M74.5,50.1C74.5,50.1,74.6,50.1,74.5,50.1C74.5,50.1,74.5,50.1,74.5,50.1z"/>
	<path fill="#091117" d="M73.1,49.9C73.2,49.9,73.2,49.9,73.1,49.9C73.2,49.9,73.1,49.9,73.1,49.9z"/>
	<path fill="#091117" d="M82.4,50.2l-0.2-0.1C82.2,50.2,82.3,50.2,82.4,50.2z"/>
	<path fill="#091117" d="M93.4,51c0,0,0.1,0,0.1-0.1C93.5,51,93.4,51,93.4,51C93.4,51,93.4,51,93.4,51z"/>
	<path fill="#091117" d="M85.9,50.1L85.9,50.1C86,50,86,50,86,50L85.9,50.1z"/>
	<path fill="#091117" d="M88.6,50c-0.1,0-0.1,0.2-0.1,0.2c0-0.1,0.1-0.1,0.1-0.1C88.6,50.1,88.6,50.1,88.6,50z"/>
	<path fill="#091117" d="M92.8,50.3L92.8,50.3C92.9,50.3,92.8,50.3,92.8,50.3z"/>
	<path fill="#091117" d="M84,50C84,50,83.9,50,84,50C83.9,50,83.9,50,84,50z"/>
	<path fill="#091117" d="M9.1,51.3C9.1,51.3,9.1,51.3,9.1,51.3C9.1,51.3,9,51.3,9.1,51.3z"/>
	<path fill="#091117" d="M6,50.5L6,50.5c0,0,0.1-0.1,0.1-0.1L6,50.5z"/>
	<path fill="#091117" d="M70.6,49.7C70.7,49.7,70.7,49.7,70.6,49.7C70.7,49.7,70.7,49.7,70.6,49.7z"/>
	<path fill="#091117" d="M47.9,49.8c0.3,0.2-0.4,0.2,0,0.4C47.9,50.1,48.3,49.9,47.9,49.8z"/>
	<path fill="#091117" d="M93.3,51c0,0-0.1,0-0.1,0C93.3,51,93.3,51,93.3,51z"/>
	<path fill="#091117" d="M47.9,50.2C47.9,50.2,47.9,50.2,47.9,50.2L47.9,50.2C47.9,50.2,47.9,50.2,47.9,50.2z"/>
	<path fill="#091117" d="M65,49.8C65,49.8,65,49.8,65,49.8C65,49.8,65,49.8,65,49.8z"/>
	<path fill="#091117" d="M69.2,50l-0.1,0C69.1,50,69.2,50,69.2,50z"/>
	<path fill="#091117" d="M62.7,50c-0.1,0-0.1,0-0.2,0c0,0,0,0,0,0C62.6,50,62.7,50,62.7,50z"/>
	<path fill="#091117" d="M60.5,50C60.5,50,60.5,50,60.5,50c0.1,0,0.1,0,0.1,0L60.5,50z"/>
	<path fill="#091117" d="M16,51.2c-0.1,0-0.1-0.1-0.1-0.2C16,51.2,15.6,51.2,16,51.2z"/>
	<path fill="#091117" d="M93.4,50.9C93.4,51,93.4,51,93.4,50.9C93.4,51,93.4,51,93.4,50.9C93.4,51,93.4,50.9,93.4,50.9z"/>
	<path fill="#091117" d="M62.7,51.4l-0.4,0C62.4,51.4,62.5,51.4,62.7,51.4z"/>
	<path fill="#091117" d="M32.5,51.2L32.5,51.2C32.4,51.2,32.5,51.2,32.5,51.2z"/>
	<path fill="#091117" d="M61.2,51.4c-0.1-0.1-0.1-0.1-0.2-0.1c0,0,0,0,0,0L61.2,51.4z"/>
	<path fill="#091117" d="M16,51.1C16,51.1,16,51.1,16,51.1C16,51.1,16,51.1,16,51.1z"/>
	<path fill="#091117" d="M13.5,51.5c0.3,0,0.2-0.2,0.2-0.3c0.4-0.1,0.2,0.2,0.3,0.3c0.3-0.1,0.5-0.3,0.7-0.3c0,0,0.1,0.1,0,0.1
		c0.3-0.2,0.8,0,1.1-0.2c0,0,0,0,0,0.1c-0.1-0.1-0.1-0.2,0-0.3c0.2,0,0.3-0.1,0.3,0c-0.1,0-0.1,0.1-0.1,0.1l0.2-0.1
		C16.4,51,16,50.9,16,51c0.3-0.1,0.7-0.2,0.9-0.2c0.1,0.2-0.6,0.1-0.2,0.3L16.3,51c0.3,0.3-0.2,0,0,0.3c0.5,0.1,0.6-0.1,1.1,0
		c0.1-0.1,0-0.2,0.1-0.3c0.7-0.2,0.6,0.5,1.1,0.2c0.1-0.1,0.2-0.4,0.6-0.3L19,51.2c0.5,0,0.3-0.3,0.8-0.2c-0.1,0.1-0.4,0.1-0.3,0.1
		c0.3,0.2,0.2-0.1,0.5-0.1l0.1,0.2c0.5,0,1.1-0.2,1.6-0.2c0,0.1-0.1,0.1,0,0.2c0.7-0.1,1.5,0,2.2,0.1l0.3-0.2c0.1,0,0.1,0.1,0,0.1
		c0.3,0.1,0-0.1,0.1-0.2c0.2,0,0.2,0.1,0.1,0.2c0.5-0.2,1.4-0.3,1.8-0.1l-0.1,0.1c0.4,0.1,0.4-0.4,0.8-0.2l-0.1,0
		c0.8,0.1,1.8-0.1,2.4,0.2c0.1-0.3,0.8,0.1,0.9-0.2c0.5,0.2,0.3,0.2,1,0.4c0.2,0,0.3-0.2,0.5-0.3l0,0.2L32,51l0.2,0.2l0.2,0
		c-0.1,0-0.2-0.1-0.2-0.1c0.3-0.1,0.8,0.1,0.8,0.2l0.8-0.2c0,0.1-0.1,0.1-0.3,0.1c0.4-0.2,0.1,0.2,0.5,0c-0.1,0,0-0.1,0-0.1
		c0.2,0.1,0.6,0.1,0.9,0.1L35,51.4c0.6,0,1.2-0.1,1.9-0.1c-0.2-0.1-0.2-0.3,0-0.3l0.1,0.2c0.1-0.1-0.2-0.1,0.1-0.2
		c0.2,0,0.2,0.2,0,0.3l0.3-0.1c0,0.1-0.1,0.1-0.1,0.2c0.1-0.1,0.5,0.2,0.7,0l0,0.1c0.6,0,0.9-0.1,1.5-0.1c0-0.2,0.2-0.1,0.4-0.3
		c0.4,0.1,0.8,0.2,1.3,0.2c0.3-0.1,0.1-0.1,0.2-0.2c0,0.2,0.5,0.1,0.2,0.3c0.6,0,0.7,0,1.4-0.2c-0.1-0.1-0.2-0.1-0.1-0.1
		c0.1,0,0.3,0.1,0.3,0.1l0,0c0.8-0.2,1.8,0.5,2.5,0.1l0,0l0.7-0.2c0.3,0-0.2,0.1,0,0.2c0.7-0.3,1.1,0,1.7-0.1c0.5,0.5,1.6,0,2.2,0.3
		l0-0.1c0.2-0.1,0.2,0.1,0.3,0.1c0-0.1-0.2-0.1-0.1-0.2c1.3-0.1,2.8,0.2,4.1,0.3c0.5,0,0.3-0.6,0.9-0.3l-0.2,0.2
		c1-0.2,2.1,0,3.1-0.2c-0.1,0-0.1,0.1-0.2,0.1c0.2,0.1,0.8,0,0.8-0.1c0.2,0,0,0.1,0.1,0.2c0.2,0.1,0.5-0.2,0.6,0c0,0-0.1,0-0.1,0.1
		c0.1-0.1,0.6,0,0.5-0.2c0.4,0.1,0.7-0.1,1,0c0.2-0.2,0.6,0.1,0.7-0.2c0,0.3,0.6,0.2,0.9,0.1c-0.1,0.1,0.2,0.1,0.1,0.2
		c0.3,0,0.5-0.1,0.5-0.2c0.5,0.3,1-0.3,1.3,0.2c0.8-0.1,1.5-0.2,2.2-0.3c0,0.3-0.8,0-0.8,0.3c0.7-0.1,1.1-0.3,1.7-0.3
		c0.2,0-0.1,0.1-0.2,0.2c0.7-0.1,1.3,0,1.9-0.1c0,0-0.1,0.1-0.1,0.1c0.1,0,0.3,0,0.3-0.1l-0.1,0c-0.2-0.2,0.5-0.4,0.5-0.5
		c-0.2,0.4,0.6,0.1,0.3,0.5c0.1,0,0.2-0.1,0.2-0.2c0.1,0,0.2,0.1,0,0.2c0.4-0.1,0.3-0.2,0.7-0.2c0,0.1-0.1,0.1-0.1,0.2
		c0.2-0.1,0.4-0.2,0.7-0.2c0,0,0,0.1-0.1,0.1c0.6,0,1-0.3,1.6-0.2c-0.2,0.3,0.2,0.1,0.2,0.3l0.3-0.1L73.6,51c0.3,0,0.5-0.2,0.8-0.1
		L74.2,51l0.5,0l-0.3-0.1c0.3-0.1,0-0.3,0.4-0.2c-0.1,0,0.3,0,0.4,0.1c0,0,0,0,0,0c0.1-0.1,0.3-0.1,0.5-0.1c0.1,0.1,0,0.3,0,0.3
		c0.1-0.2,0.7-0.1,0.9-0.3c-0.1,0-0.1,0.2,0,0.2l0.1-0.2c0.1,0,0.2,0.1,0.1,0.2c0.4,0-0.1-0.3,0.4-0.2c0,0,0,0-0.1,0.1
		c0.5,0.1,0.9-0.1,1.4,0c0.1,0.2-0.4,0.1-0.2,0.2c0.6,0,1.3-0.3,1.9-0.2l-0.1,0c0.1-0.3,0.5,0.2,0.8,0c-0.1,0-0.1,0.2-0.1,0.1
		c0.4,0.1,0.9-0.1,1.5-0.2l-0.1,0.1c0.2,0.1,0.7,0,0.9,0.1c0.1-0.1,0.2-0.1,0.1-0.2c0.8,0.5,1.6-0.3,2.3,0.1c-0.1,0-0.2,0.1-0.1,0.1
		l0.6-0.1c0-0.1-0.1-0.1-0.2-0.2c0.1-0.1,0.3-0.1,0.4-0.1c-0.3,0.1,0,0.2,0.1,0.3c0,0,0-0.1,0-0.1c0.3,0.3,0.1-0.3,0.5-0.1l0,0.1
		c0.2,0,0.3-0.1,0.5-0.1c0.1,0.2-0.2,0.1-0.2,0.2c0.3,0,0.5-0.3,0.7-0.1c-0.1,0-0.3,0-0.4,0.1c0.2,0.2,0.3,0.1,0.5,0.2l0,0l0.4,0.1
		l-0.1-0.1c0.3-0.4,0.6-0.1,1.1-0.4c-0.4,0.3-0.1,0.2-0.1,0.3c0.1,0.1,0.3,0.1,0.2,0.2c0.2-0.1,0.3,0.1,0.6-0.1c0,0.1,0.2,0,0.2,0.2
		c0.3,0-0.1-0.1,0-0.2c0.4-0.2,0.9,0.2,1.5,0c0.5-0.1,0.6-0.3,1.1-0.4c0.2,0.1-0.1,0.2-0.1,0.2c0.3,0.1,0.4,0.1,0.7,0
		c0,0.1,0,0.1,0.1,0.2c0.2,0,0.1-0.2,0.4-0.1c0,0.1-0.1,0.2-0.2,0.2c0.2-0.1,0.4-0.2,0.7-0.2c0.1,0.1-0.1,0.2-0.2,0.2
		c0.3,0,0.7-0.1,0.8-0.3l-0.2-0.1c0.1,0,0,0.1,0,0.2c-0.2,0.1-0.3-0.1-0.3-0.1l0.2,0c-0.2-0.3-0.7,0.1-1,0l0.1-0.3l-0.3,0.2
		c-0.1-0.1-0.1-0.2,0-0.2c-0.2-0.1-0.2,0.1-0.4,0c0,0,0,0,0,0l-0.2,0.1c0-0.1,0-0.2,0.1-0.1c-0.4-0.1-0.7,0.2-0.8,0l0,0
		c-0.6,0.1-0.1,0.2-0.5,0.4l-0.3-0.5L91,50.4c-0.1,0-0.2,0-0.2-0.1c-0.2,0.1,0,0.1-0.1,0.2c-0.3-0.2-0.8,0.1-0.9-0.2
		c-0.1,0.1,0.3,0.1,0,0.2c-0.1-0.3-0.4,0.1-0.6-0.1c0.1-0.2,0.3-0.1,0.1-0.2c-0.2,0.3-0.5-0.1-0.7,0c0,0.2-0.5,0.1-0.9,0.2
		c0-0.1-0.7-0.1-1.1-0.2l0,0c-0.1,0.2-0.4,0.2-0.7,0.2c0-0.1,0.1-0.2,0.2-0.2l-0.2,0c-0.1,0.1-0.1,0.1-0.3,0.1l0.1-0.2
		c-0.3,0-0.7,0.2-1.1,0.1c0,0.2,0.3,0.4-0.1,0.5c0-0.1,0-0.2,0.1-0.3c0,0-0.1,0.1-0.2,0l0.2-0.1c-0.2-0.1-0.1,0.1-0.3,0.1
		c0-0.1-0.1-0.1-0.1-0.2c0,0,0.1,0,0.2,0c-0.2,0-0.4-0.1-0.5-0.2c0,0.1,0,0.2-0.1,0.2c-0.3,0-0.1-0.1-0.3-0.2
		c-0.1,0.1-0.3,0-0.3,0.2c-0.1,0-0.1-0.1-0.2-0.1c-0.2,0.1-0.8,0-0.6,0.2l0-0.1c0,0,0-0.1,0-0.1c0,0,0,0,0,0h0
		c-0.6,0-1.5,0.1-1.5,0.2v0c-1,0.1-0.8,0-1.1,0.2c-0.1,0-0.3-0.1-0.2-0.2c-0.3,0-0.3,0.1-0.7,0c0.3-0.1-0.1-0.1,0.2-0.1
		c-0.3-0.1-0.4-0.1-0.8,0c0.1-0.2-0.2-0.2-0.4-0.1l0.2,0.1c-0.2,0-0.3,0-0.5,0l0.1-0.2c-0.7-0.2-1.2,0.4-1.7,0
		C76,50,76.6,50,76.4,50.2c-0.3,0-0.6-0.3-0.7-0.3c-0.4-0.1-0.4,0.3-0.8,0.2c0.1,0.1,0.1,0.3-0.2,0.3c-0.3,0-0.4-0.3-0.2-0.4
		c0.1,0,0.1,0,0.1,0c0.1,0,0.2-0.1,0.1-0.1l0,0.1c-0.2-0.1-0.6-0.1-0.5-0.2c-0.2,0.1-0.1,0.1,0.1,0.2c-0.4-0.1-0.6,0-1-0.1
		c0.1,0,0.1,0.1,0.1,0.1c-0.6-0.1-0.3,0.1-0.7,0.2c-0.2-0.1,0.1-0.3-0.3-0.2c-0.2-0.1-0.1-0.2,0-0.3c-0.4,0.1-0.7-0.1-0.9-0.1
		l0.2-0.1c-0.1,0-0.2,0-0.3,0l0.1,0.1c-0.1,0-0.2,0-0.2-0.1c-0.1,0.1,0.1,0.2-0.1,0.4c-0.2-0.1-0.5,0.1-0.5-0.1
		c0.5,0.1-0.1-0.2,0.4-0.2c-0.1,0-0.2,0-0.3,0c0,0,0,0,0-0.1c-0.5-0.2-0.2,0.2-0.7,0.2c0.1-0.1-0.1-0.2-0.2-0.2
		c0.2,0,0.1,0.2-0.1,0.3c-0.3-0.1-0.3,0.1-0.5,0.1l0.2,0c-0.1,0.1-0.2,0.1-0.4,0.1c0-0.1,0.2-0.1,0.1-0.1c-0.2,0.2-0.5-0.2-0.9-0.1
		c-0.2-0.1,0-0.2-0.1-0.3c-0.4,0.1-0.4-0.1-0.8,0c0.1,0.1,0.1,0.1-0.1,0.3l0.6-0.1l-0.4,0.2c0.2,0,0.4-0.1,0.5-0.1
		c-0.2,0.1-0.2,0.1-0.1,0.2c-0.3-0.2-0.5,0.1-0.8,0l0-0.4c-0.5-0.2-0.8,0.2-1.4,0.1l0.2,0.1c-0.1,0.1-0.4,0-0.6,0.1
		c0-0.1-0.1-0.2-0.2-0.2c0,0.1-0.4,0-0.5,0.2l-0.3-0.2c-0.5-0.1-0.5,0.3-1,0.3c0.1-0.1-0.1-0.2,0.2-0.3c-0.2,0-0.3,0-0.3,0.1
		c-0.1-0.1-0.4,0.2-0.6,0c-0.1,0.1-0.1,0.2-0.3,0.2c0,0,0-0.1,0-0.1c0,0.1-0.3,0.1-0.1,0.2c-0.5-0.4-1.3,0-1.7-0.3
		c-0.3,0-0.7,0.1-1,0.1c0,0,0-0.1,0.1,0c-0.4-0.1-0.3,0.3-0.7,0.2c-0.2-0.2,0.3-0.1,0.1-0.2c-0.1-0.4-0.6,0.1-0.9-0.2l0.1,0
		c-0.2-0.1-0.6,0.1-1,0.1c0,0,0,0,0-0.1c-0.3,0.2-0.8,0.3-1.2,0.3c0.1-0.2,0.2-0.1,0.1-0.2c-0.2,0,0.1,0.3-0.3,0.3
		c-0.1-0.1-0.4-0.2-0.4-0.3l0.3,0c-0.2-0.2-0.4,0-0.6,0l0-0.1c-0.5,0-0.5,0.3-1,0.3l0.1,0.1c-0.3,0.2-0.2-0.1-0.5,0L53.4,50
		c-0.2,0.1-0.7,0.2-1,0.3c0.2-0.2,0.6-0.3,0.9-0.4c-0.2,0-0.7,0-0.8,0.1c0.1,0,0.2-0.1,0.3,0c-0.2,0.2-0.5,0.3-0.9,0.3
		c0.1-0.5-1-0.1-1.3-0.5c-0.7,0.2-1.3-0.1-2.1,0c0.3,0.4-0.2,0-0.2,0.4c-0.2,0-0.3,0-0.3,0l-0.6-0.2c-0.1-0.1,0.2-0.1,0.2-0.2
		c-0.4,0-0.2-0.2-0.4-0.3c0.1,0.1-0.1,0.2-0.4,0.1l0.3,0.2c-0.6,0.2-0.5-0.3-1.1-0.1l0.2-0.1c-0.3,0.1-1.1,0-1.4,0.3
		c-0.1,0-0.1-0.1,0-0.2c-0.7,0-1.6,0.3-2.1,0.1l0.1-0.1c-0.1,0-0.2,0.2-0.4,0.1c0,0,0.1-0.1,0-0.1c-0.1,0-0.3,0.2-0.5,0.1l0.1-0.1
		c-0.7-0.1-1,0.2-1.6,0.3c0-0.3-0.5-0.4-0.8-0.4l0,0c-0.8,0-1.3,0.2-2.1,0.3c-0.5-0.3-1.5-0.1-2.3-0.3c0.1,0,0,0.2-0.1,0.2
		c-0.2-0.1-0.5,0.2-0.4-0.1l0.1,0c-0.1-0.2-0.5-0.2-0.8-0.2l0,0.3c-0.7-0.5-1.9,0.2-2.3-0.2c-0.2,0.1-0.4,0.1-0.6,0.2l0-0.2
		c-0.5,0-0.7-0.1-1.3,0l0.1-0.1c-0.3,0-0.4,0.5-0.7,0.5L29,49.8c-0.6,0-1.2-0.2-1.8,0c0,0,0-0.1,0.1-0.1c-0.3,0-1.1-0.2-1,0.2
		c0-0.2-0.6,0-0.9,0.1l0-0.2c-0.3,0.2-0.3,0.3-0.6,0.3c-0.1,0-0.1-0.1,0-0.1c-0.3-0.1-0.2,0.2-0.6,0.1l0.1-0.1c-0.3,0-0.3,0-0.4,0.2
		c-0.2,0.1-0.6,0-0.6-0.2c0,0.1-0.2,0.2-0.4,0.2c0-0.1,0-0.1,0.1-0.1c-0.5-0.1-0.8,0.2-1.1,0C22,50,22,50,22,50c0.4,0,0.7,0,0.7,0
		c0-0.2-0.3-0.2-0.1-0.4c-0.3,0.1-0.7,0.4-1,0.3c0,0,0,0,0-0.1l0,0c-0.1,0-0.1,0-0.2,0c-0.1,0-0.2,0-0.3,0c0-0.1-0.4-0.1-0.5-0.1
		c0,0.2-0.2,0.1,0,0.3c0,0,0,0,0.1,0c0,0,0.1,0,0.1,0c0,0,0,0,0,0c0.1,0,0.2,0,0.4,0c-0.1,0.1-0.3,0.2-0.4,0.1
		c-0.1,0.1-0.2,0.2-0.2,0.3c-0.2-0.2-0.6-0.4-0.7-0.5c-0.5,0.1-1.2,0.1-1.5,0.4c-0.1,0-0.2-0.1-0.2-0.1c0.1,0,0.2,0,0.2-0.1
		c-0.3,0.1-0.8,0-0.9,0.3c-0.4-0.1,0.2-0.2-0.3-0.2l0.1-0.1c-1-0.4-1.6,0.6-2.6,0.1c0.1,0,0.1,0,0.1,0.1c-1.2-0.2-2.5,0.2-3.7-0.1
		c-0.3-0.1-0.4,0.1-0.6,0.2l-0.1-0.2L10,50.3c-0.5,0.2-0.9-0.5-1.5-0.2l0.1,0.1c-0.2,0-0.7,0.1-0.7-0.1c0,0-0.1,0.1-0.2,0.1l0-0.1
		l-0.6,0.2c-0.4-0.1,0.1-0.4-0.6-0.4c-0.2,0-0.7,0.3-0.6,0.3c0.1,0,0.2,0.1,0.3,0.2L6,50.4c0,0.3-0.2,0.6,0.3,0.8L6.7,51l0.1,0.1
		l-0.3,0c0.2,0.1,0.3,0,0.4-0.1c0,0.1,0.1,0.1,0.2,0.2L7.4,51c0,0.1-0.2,0.2,0.1,0.3C7.7,51.2,7.4,51,7.6,51
		c0.2,0.1,0.1,0.2,0.3,0.1c0,0.1,0,0.1-0.1,0.2c0.2-0.1,0.5,0,0.6-0.2c0.2,0.2,0.6,0,0.6,0.2c0.1-0.1,0.3-0.2,0.5-0.2
		c-0.3,0.3,0.6,0,0.6,0.4c0.2-0.3,0.8-0.1,1.2-0.3c0,0-0.1,0.1-0.1,0.1c0.2,0,0.3,0.1,0.4,0.2c0-0.2,0.4-0.3,0.6-0.4
		c0.3,0.2-0.2,0.3-0.1,0.5c0-0.2,0.5-0.2,0.4-0.4c0.2,0.1,0.2,0.1,0.3,0.3c0-0.3,0.2-0.1,0.4-0.2c0.3,0.1,0.1,0.3,0.4,0.2
		C13.8,51.4,13.5,51.5,13.5,51.5z M21.6,51C21.6,51,21.6,51,21.6,51c-0.1,0-0.1,0-0.2,0C21.5,51,21.6,51,21.6,51z M22.3,51
		c-0.1,0-0.2,0-0.3,0c0-0.1,0-0.1,0.1-0.1C22.1,50.9,22.2,50.9,22.3,51z M20.9,49.8c0.1,0,0.1,0,0.2,0C21,49.8,20.9,49.8,20.9,49.8
		C20.9,49.8,20.8,49.8,20.9,49.8C20.9,49.8,20.9,49.8,20.9,49.8z"/>
	<path fill="#091117" d="M20.7,50C20.7,50,20.7,50,20.7,50C20.7,50,20.7,50,20.7,50C20.7,50,20.7,50,20.7,50
		C20.7,50,20.7,50,20.7,50z"/>
	<path fill="#091117" d="M82.5,50.2L82.5,50.2C82.5,50.2,82.5,50.3,82.5,50.2C82.5,50.3,82.5,50.3,82.5,50.2z"/>
	<polygon fill="#091117" points="31.7,51.3 31.7,51.2 31.7,51.3 	"/>
	<path fill="#091117" d="M86.2,50.8C86.2,50.8,86.3,50.9,86.2,50.8C86.3,50.9,86.3,50.9,86.2,50.8z"/>
	<path fill="#091117" d="M87.9,50.9l0.2,0.1C88,50.9,87.9,50.9,87.9,50.9z"/>
	<path fill="#091117" d="M89.1,51C89.1,50.9,89.1,50.9,89.1,51C89.1,50.9,89.1,50.9,89.1,51L89.1,51z"/>
	<path fill="#091117" d="M69.3,51.2C69.3,51.2,69.2,51.2,69.3,51.2C69.1,51.2,69.2,51.2,69.3,51.2z"/>
	<path fill="#091117" d="M75.2,50.8c-0.1,0-0.1,0.1-0.2,0.1C75.1,50.9,75.2,50.9,75.2,50.8z"/>
	<path fill="#091117" d="M62.7,51.4C62.7,51.4,62.7,51.4,62.7,51.4C62.7,51.4,62.7,51.4,62.7,51.4L62.7,51.4z"/>
	<path fill="#091117" d="M74.7,50.8c0.1,0,0.2,0,0.3,0C74.9,50.8,74.8,50.8,74.7,50.8z"/>
	<path fill="#091117" d="M94.5,51L94.5,51C94.6,51,94.6,51,94.5,51L94.5,51z"/>
	<path fill="#091117" d="M94.6,51L94.6,51C94.6,51,94.6,51,94.6,51z"/>
	<path fill="#091117" d="M94.8,51l-0.1,0C94.7,51,94.8,51,94.8,51z"/>
	<path fill="#091117" d="M92.9,51L92.9,51C92.9,51,92.9,51,92.9,51z"/>
	<path fill="#091117" d="M92.4,51c0.1,0,0.3,0.1,0.5,0.1l0,0C92.8,51.1,92.5,50.9,92.4,51z"/>
	<path fill="#091117" d="M90.3,50.2l0.4,0c-0.1-0.1-0.2-0.2,0-0.2C90.2,49.9,90.8,50.2,90.3,50.2z"/>
	<path fill="#091117" d="M89,50.1c0.2,0,0-0.1,0-0.1C88.8,50,88.8,50.1,89,50.1z"/>
	<path fill="#091117" d="M79.5,50.1l0-0.2C79.4,50,79.6,50,79.5,50.1z"/>
	<polygon fill="#091117" points="77.7,50.9 77.9,51 78,50.9 	"/>
	<polygon fill="#091117" points="76.7,49.8 76.8,49.8 76.5,49.8 	"/>
	<path fill="#091117" d="M60.9,49.9l0.1,0.2C61,50,61.1,49.8,60.9,49.9z"/>
	<path fill="#091117" d="M54,50.1C54,50,53.8,49.9,53.6,50C53.8,50,54,50.1,54,50.1z"/>
	<polygon fill="#091117" points="33.6,49.7 33.7,49.7 33.4,49.7 	"/>
</g>
</svg>
