<?xml version="1.0" encoding="utf-8"?>
<!-- Generator: Adobe Illustrator 18.1.0, SVG Export Plug-In . SVG Version: 6.00 Build 0)  -->
<svg version="1.1" id="Layer_1" xmlns="http://www.w3.org/2000/svg" xmlns:xlink="http://www.w3.org/1999/xlink" x="0px" y="0px"
	 viewBox="0 0 100 100" enable-background="new 0 0 100 100" xml:space="preserve">
<g>
	<g>
		<path fill="#091117" d="M7,51.3H6.4c-0.2,0-0.3-0.1-0.3-0.3s0.1-0.3,0.3-0.3H7c0.2,0,0.3,0.1,0.3,0.3S7.2,51.3,7,51.3z"/>
	</g>
	<g>
		<path fill="#091117" d="M92.9,51.3h-1.2c-0.2,0-0.3-0.1-0.3-0.3s0.1-0.3,0.3-0.3h1.2c0.2,0,0.3,0.1,0.3,0.3S93,51.3,92.9,51.3z
			 M90.5,51.3h-1.2c-0.2,0-0.3-0.1-0.3-0.3s0.1-0.3,0.3-0.3h1.2c0.2,0,0.3,0.1,0.3,0.3S90.7,51.3,90.5,51.3z M88.1,51.3h-1.2
			c-0.2,0-0.3-0.1-0.3-0.3s0.1-0.3,0.3-0.3h1.2c0.2,0,0.3,0.1,0.3,0.3S88.3,51.3,88.1,51.3z M85.7,51.3h-1.2c-0.2,0-0.3-0.1-0.3-0.3
			s0.1-0.3,0.3-0.3h1.2c0.2,0,0.3,0.1,0.3,0.3S85.9,51.3,85.7,51.3z M83.3,51.3h-1.2c-0.2,0-0.3-0.1-0.3-0.3s0.1-0.3,0.3-0.3h1.2
			c0.2,0,0.3,0.1,0.3,0.3S83.5,51.3,83.3,51.3z M80.9,51.3h-1.2c-0.2,0-0.3-0.1-0.3-0.3s0.1-0.3,0.3-0.3h1.2c0.2,0,0.3,0.1,0.3,0.3
			S81.1,51.3,80.9,51.3z M78.6,51.3h-1.2c-0.2,0-0.3-0.1-0.3-0.3s0.1-0.3,0.3-0.3h1.2c0.2,0,0.3,0.1,0.3,0.3S78.7,51.3,78.6,51.3z
			 M76.2,51.3H75c-0.2,0-0.3-0.1-0.3-0.3s0.1-0.3,0.3-0.3h1.2c0.2,0,0.3,0.1,0.3,0.3S76.3,51.3,76.2,51.3z M73.8,51.3h-1.2
			c-0.2,0-0.3-0.1-0.3-0.3s0.1-0.3,0.3-0.3h1.2c0.2,0,0.3,0.1,0.3,0.3S74,51.3,73.8,51.3z M71.4,51.3h-1.2c-0.2,0-0.3-0.1-0.3-0.3
			s0.1-0.3,0.3-0.3h1.2c0.2,0,0.3,0.1,0.3,0.3S71.6,51.3,71.4,51.3z M69,51.3h-1.2c-0.2,0-0.3-0.1-0.3-0.3s0.1-0.3,0.3-0.3H69
			c0.2,0,0.3,0.1,0.3,0.3S69.2,51.3,69,51.3z M66.6,51.3h-1.2c-0.2,0-0.3-0.1-0.3-0.3s0.1-0.3,0.3-0.3h1.2c0.2,0,0.3,0.1,0.3,0.3
			S66.8,51.3,66.6,51.3z M64.3,51.3h-1.2c-0.2,0-0.3-0.1-0.3-0.3s0.1-0.3,0.3-0.3h1.2c0.2,0,0.3,0.1,0.3,0.3S64.4,51.3,64.3,51.3z
			 M61.9,51.3h-1.2c-0.2,0-0.3-0.1-0.3-0.3s0.1-0.3,0.3-0.3h1.2c0.2,0,0.3,0.1,0.3,0.3S62,51.3,61.9,51.3z M59.5,51.3h-1.2
			c-0.2,0-0.3-0.1-0.3-0.3s0.1-0.3,0.3-0.3h1.2c0.2,0,0.3,0.1,0.3,0.3S59.6,51.3,59.5,51.3z M57.1,51.3h-1.2c-0.2,0-0.3-0.1-0.3-0.3
			s0.1-0.3,0.3-0.3h1.2c0.2,0,0.3,0.1,0.3,0.3S57.3,51.3,57.1,51.3z M54.7,51.3h-1.2c-0.2,0-0.3-0.1-0.3-0.3s0.1-0.3,0.3-0.3h1.2
			c0.2,0,0.3,0.1,0.3,0.3S54.9,51.3,54.7,51.3z M52.3,51.3h-1.2c-0.2,0-0.3-0.1-0.3-0.3s0.1-0.3,0.3-0.3h1.2c0.2,0,0.3,0.1,0.3,0.3
			S52.5,51.3,52.3,51.3z M49.9,51.3h-1.2c-0.2,0-0.3-0.1-0.3-0.3s0.1-0.3,0.3-0.3h1.2c0.2,0,0.3,0.1,0.3,0.3S50.1,51.3,49.9,51.3z
			 M47.6,51.3h-1.2c-0.2,0-0.3-0.1-0.3-0.3s0.1-0.3,0.3-0.3h1.2c0.2,0,0.3,0.1,0.3,0.3S47.7,51.3,47.6,51.3z M45.2,51.3H44
			c-0.2,0-0.3-0.1-0.3-0.3s0.1-0.3,0.3-0.3h1.2c0.2,0,0.3,0.1,0.3,0.3S45.3,51.3,45.2,51.3z M42.8,51.3h-1.2c-0.2,0-0.3-0.1-0.3-0.3
			s0.1-0.3,0.3-0.3h1.2c0.2,0,0.3,0.1,0.3,0.3S43,51.3,42.8,51.3z M40.4,51.3h-1.2c-0.2,0-0.3-0.1-0.3-0.3s0.1-0.3,0.3-0.3h1.2
			c0.2,0,0.3,0.1,0.3,0.3S40.6,51.3,40.4,51.3z M38,51.3h-1.2c-0.2,0-0.3-0.1-0.3-0.3s0.1-0.3,0.3-0.3H38c0.2,0,0.3,0.1,0.3,0.3
			S38.2,51.3,38,51.3z M35.6,51.3h-1.2c-0.2,0-0.3-0.1-0.3-0.3s0.1-0.3,0.3-0.3h1.2c0.2,0,0.3,0.1,0.3,0.3S35.8,51.3,35.6,51.3z
			 M33.2,51.3h-1.2c-0.2,0-0.3-0.1-0.3-0.3s0.1-0.3,0.3-0.3h1.2c0.2,0,0.3,0.1,0.3,0.3S33.4,51.3,33.2,51.3z M30.9,51.3h-1.2
			c-0.2,0-0.3-0.1-0.3-0.3s0.1-0.3,0.3-0.3h1.2c0.2,0,0.3,0.1,0.3,0.3S31,51.3,30.9,51.3z M28.5,51.3h-1.2c-0.2,0-0.3-0.1-0.3-0.3
			s0.1-0.3,0.3-0.3h1.2c0.2,0,0.3,0.1,0.3,0.3S28.6,51.3,28.5,51.3z M26.1,51.3h-1.2c-0.2,0-0.3-0.1-0.3-0.3s0.1-0.3,0.3-0.3h1.2
			c0.2,0,0.3,0.1,0.3,0.3S26.3,51.3,26.1,51.3z M23.7,51.3h-1.2c-0.2,0-0.3-0.1-0.3-0.3s0.1-0.3,0.3-0.3h1.2c0.2,0,0.3,0.1,0.3,0.3
			S23.9,51.3,23.7,51.3z M21.3,51.3h-1.2c-0.2,0-0.3-0.1-0.3-0.3s0.1-0.3,0.3-0.3h1.2c0.2,0,0.3,0.1,0.3,0.3S21.5,51.3,21.3,51.3z
			 M18.9,51.3h-1.2c-0.2,0-0.3-0.1-0.3-0.3s0.1-0.3,0.3-0.3h1.2c0.2,0,0.3,0.1,0.3,0.3S19.1,51.3,18.9,51.3z M16.5,51.3h-1.2
			c-0.2,0-0.3-0.1-0.3-0.3s0.1-0.3,0.3-0.3h1.2c0.2,0,0.3,0.1,0.3,0.3S16.7,51.3,16.5,51.3z M14.2,51.3H13c-0.2,0-0.3-0.1-0.3-0.3
			s0.1-0.3,0.3-0.3h1.2c0.2,0,0.3,0.1,0.3,0.3S14.3,51.3,14.2,51.3z M11.8,51.3h-1.2c-0.2,0-0.3-0.1-0.3-0.3s0.1-0.3,0.3-0.3h1.2
			c0.2,0,0.3,0.1,0.3,0.3S11.9,51.3,11.8,51.3z M9.4,51.3H8.2c-0.2,0-0.3-0.1-0.3-0.3s0.1-0.3,0.3-0.3h1.2c0.2,0,0.3,0.1,0.3,0.3
			S9.6,51.3,9.4,51.3z"/>
	</g>
	<g>
		<path fill="#091117" d="M94.7,51.3h-0.6c-0.2,0-0.3-0.1-0.3-0.3s0.1-0.3,0.3-0.3h0.6c0.2,0,0.3,0.1,0.3,0.3S94.8,51.3,94.7,51.3z"
			/>
	</g>
</g>
</svg>
